<svg xmlns="http://www.w3.org/2000/svg" xmlns:xlink="http://www.w3.org/1999/xlink" id="Layer_1" data-name="Layer 1" viewBox="0 0 158.5 158.05"><defs><style>.cls-1{fill:url(#linear-gradient);}.cls-2{fill:#efeff0;}</style><linearGradient id="linear-gradient" x1="94.72" y1="137.58" x2="66.46" y2="47.01" gradientUnits="userSpaceOnUse"><stop offset="0" stop-color="#63f"></stop><stop offset="1" stop-color="#63f"></stop></linearGradient></defs><path class="cls-1" d="M100.17,110.54l17.53,37.6c-1.57.86-3.18,1.69-4.84,2.46s-3.33,1.49-5,2.13L90.35,115.2,65.4,61.69,1.05,91.7A77,77,0,0,1,0,80.2L131.47,18.89a76.78,76.78,0,0,1,8.13,8.2l-64.35,30Z"></path><path class="cls-2" d="M79.94,118.56,60.16,76.12,13.68,97.79a5.7,5.7,0,1,0-2,8.75c.17-.08.33-.18.49-.26a5.71,5.71,0,0,0,2.68-6l44-20.52,18.4,39.47,17.42,37.35c.9-.17,1.81-.36,2.73-.58ZM10.5,104.07a3,3,0,0,1-4-1.45,2.25,2.25,0,0,1-.23-.78,3,3,0,1,1,4.2,2.23Z"></path><path class="cls-2" d="M119,11.23a5.69,5.69,0,0,0-10.74,3.52l-96.49,45a5.7,5.7,0,1,0,1.15,2.46l96.48-45a5.69,5.69,0,0,0,9.6-6ZM8.59,66A3,3,0,1,1,10,62,3,3,0,0,1,8.59,66Zm106.5-49.65a3,3,0,1,1,1.44-4A3,3,0,0,1,115.09,16.36Z"></path><path class="cls-2" d="M94.24,3.3A5.69,5.69,0,0,0,83.49,6.82L21.58,35.68a5.7,5.7,0,1,0,1.15,2.46L84.64,9.28a5.7,5.7,0,0,0,9.6-6ZM18.41,42a3,3,0,1,1,1.45-4A3,3,0,0,1,18.41,42ZM90.34,8.41a3,3,0,1,1,1.45-4A3,3,0,0,1,90.34,8.41Z"></path><path class="cls-2" d="M61.63,121.05l-10-21.47L23.33,112.77l-2.26,1a5.7,5.7,0,1,0,1.15,2.46l4.36-2L50.3,103.19l8.33,17.87L75.84,158c1,.06,2,.08,3,.08Zm-43.73-1a3,3,0,1,1,1.45-4A3,3,0,0,1,17.9,120.09Z"></path><path class="cls-2" d="M146.88,37.18A5.76,5.76,0,0,0,143.05,34a5.69,5.69,0,0,0-6.91,6.66L89.68,62.35l19.7,42.26,17.53,37.6c.75-.56,1.49-1.14,2.2-1.72l-17.52-37.58L93.29,63.67l44-20.52a5.71,5.71,0,0,0,5.49,2,5.1,5.1,0,0,0,1.36-.42A5.71,5.71,0,0,0,146.88,37.18ZM143,42.28h0a3,3,0,1,1-2.53-5.41,3,3,0,0,1,4,1.45A3,3,0,0,1,143,42.28Z"></path><path class="cls-2" d="M154.4,53.15a5.7,5.7,0,0,0-10.76,3.51l-3.1,1.44-27.4,12.79L123,92l17.43,37.39c.65-.78,1.29-1.56,1.9-2.38L124.89,89.66l-8.14-17.45,22.84-10.65,5.19-2.43a5.71,5.71,0,0,0,9.62-6Zm-3.92,5.12a3,3,0,1,1,1.45-4A3,3,0,0,1,150.48,58.27Z"></path><path class="cls-2" d="M158,71a5.7,5.7,0,0,0-10.76,3.51l-10.62,5,15,32.08c.5-1.1,1-2.22,1.42-3.35L140.2,80.75l8.16-3.81A5.7,5.7,0,0,0,158,71Zm-3.91,5.11a3,3,0,1,1,1.45-4A3,3,0,0,1,154.06,76.07Z"></path><path class="cls-2" d="M43.08,123l-10.63,5a5.71,5.71,0,1,0,1.15,2.47l8.16-3.81,12.78,27.42c1.16.4,2.33.74,3.51,1.07Zm-13.8,11.23a3,3,0,1,1,1.45-4A3,3,0,0,1,29.28,134.26Z"></path></svg>